# xmcd CD database file
#
# Track frame offsets:
#	150
#	20237
#	42995
#	63667
#	86082
#	114025
#	138900
#	157332
#	178767
#	196722
#	219090
#	240697
#	264335
#	283180
#
# Disc length: 4045 seconds
#
# Revision: 0
# Processed by: cddbd v1.5.2PL0 Copyright (c) Steve Scherf et al.
# Submitted via: CDex 1.70beta2
#
DISCID=c90fcb0e
DTITLE=Christoph Spendel - Out Of Town
DYEAR=1995
DGENRE=Jazz
TTITLE0=Out Of Town
TTITLE1=I Heard It Through The Grapevine
TTITLE2=Spendel EFX
TTITLE3=Rainbound
TTITLE4=Night Letter
TTITLE5=Ever Again
TTITLE6=The Cat
TTITLE7=Tied To My Soul
TTITLE8=Techno Jazz
TTITLE9=San Diego Nights
TTITLE10=Weekend In San Francisco
TTITLE11=Nice To Meet You
TTITLE12=Life Is A Beach
TTITLE13=First Class
EXTD=YEAR: 1995
EXTT0=
EXTT1=
EXTT2=
EXTT3=
EXTT4=
EXTT5=
EXTT6=
EXTT7=
EXTT8=
EXTT9=
EXTT10=
EXTT11=
EXTT12=
EXTT13=
PLAYORDER=
